# xmcd
#
# Track frame offsets:
#  150
#  11795
#  32587
#  44475
#  52290
#  66385
#  78210
#  90490
#  107325
#  121747
#
# Disc length: 1878 seconds
#
# Revision: 0
# Processed by: cddbd v1.4PL0 Copyright (c) Steve Scherf et al.
# Submitted via: AltoMP3_Maker 3.0
#
DISCID=7b07540a
DTITLE=Various Artist - Gold Collection Vol. 2
DYEAR=1900
DGENRE=
TTITLE0=Walking After Midnight
TTITLE1=You Never Even Called Me By My Name
TTITLE2=Take This job And Shove It
TTITLE3=Dang Me
TTITLE4=Always Wanting You
TTITLE5=Linda On My Mind
TTITLE6=Take Me
TTITLE7=While The Feeling's Good
TTITLE8=The Entertainer
TTITLE9=Strawberry Roan
EXTD=
EXTT0=
EXTT1=
EXTT2=
EXTT3=
EXTT4=
EXTT5=
EXTT6=
EXTT7=
EXTT8=
EXTT9=
PLAYORDER=
